<?xml version="1.0" encoding="utf-8"?>
<!-- Generator: Adobe Illustrator 24.2.1, SVG Export Plug-In . SVG Version: 6.00 Build 0)  -->
<svg version="1.1" id="Layer_1" xmlns="http://www.w3.org/2000/svg" xmlns:xlink="http://www.w3.org/1999/xlink" x="0px" y="0px"
	 viewBox="0 0 500 178.5" style="enable-background:new 0 0 500 178.5;" xml:space="preserve">
<style type="text/css">
	.st0{fill:#9900CC;}
	.st1{fill:#231F20;}
	.st2{fill:#660066;}
	.st3{fill:#660099;}
	.st4{fill:#CC99FF;}
	.st5{fill:#990099;}
	.st6{opacity:0.85;fill:#FFFFFF;enable-background:new    ;}
	.st7{font-family:'Krungthep';}
	.st8{font-size:34.2442px;}
	.st9{font-family:'MrsEavesOT-Roman';}
	.st10{font-size:30.34px;}
	.st11{font-family:'Courier';}
	.st12{font-size:30.3543px;}
	.st13{font-family:'HelveticaNeue';}
	.st14{font-size:24.9777px;}
	.st15{font-family:'Lato-Black';}
	.st16{font-size:33.7767px;}
	.st17{font-family:'MyanmarSangamMN';}
	.st18{font-size:30.7002px;}
	.st19{font-family:'GoMonoForPowerline-Italic';}
	.st20{font-size:39.391px;}
	.st21{font-family:'GoMonoForPowerline';}
	.st22{font-size:20.8256px;}
	.st23{font-family:'Copperplate-Light';}
	.st24{font-size:28.5297px;}
	.st25{font-size:29.2349px;}
	.st26{font-size:34.807px;}
	.st27{font-family:'Monaco';}
	.st28{font-family:'Tahoma';}
	.st29{font-size:29.4113px;}
	.st30{font-family:'MyriadPro-Regular';}
	.st31{font-size:30.8046px;}
	.st32{font-size:35.413px;}
</style>
<g id="Books">
	<g>
		<path class="st0" d="M43.4,172.5c-1.7,0-3.1-1.4-3.1-3.1V51.7c0-1.7,1.4-3.1,3.1-3.1h19.3c1.7,0,3.1,1.4,3.1,3.1v117.7
			c0,1.7-1.4,3.1-3.1,3.1H43.4z"/>
		<path class="st1" d="M62.7,49.1c1.4,0,2.6,1.1,2.6,2.6v117.7c0,1.4-1.1,2.6-2.6,2.6H43.4c-1.4,0-2.6-1.1-2.6-2.6V51.7
			c0-1.4,1.1-2.6,2.6-2.6H62.7 M62.7,48.1H43.4c-2,0-3.6,1.6-3.6,3.6v117.7c0,2,1.6,3.6,3.6,3.6h19.3c2,0,3.6-1.6,3.6-3.6V51.7
			C66.3,49.7,64.6,48.1,62.7,48.1L62.7,48.1z"/>
	</g>
	<g>
		<path class="st2" d="M8.8,172.6c-2.4,0-4.3-1.8-4.3-4.1V8.5c0-2.3,1.9-4.1,4.3-4.1h26c2.4,0,4.3,1.8,4.3,4.1v160
			c0,2.3-1.9,4.1-4.3,4.1H8.8z"/>
		<path class="st1" d="M34.7,5.1c2,0,3.6,1.5,3.6,3.4v160c0,1.9-1.6,3.4-3.6,3.4h-26c-2,0-3.6-1.5-3.6-3.4V8.5
			c0-1.9,1.6-3.4,3.6-3.4H34.7 M34.7,3.8h-26c-2.8,0-5,2.2-5,4.7v160c0,2.6,2.3,4.7,5,4.7h26c2.8,0,5-2.2,5-4.7V8.5
			C39.8,5.9,37.5,3.8,34.7,3.8L34.7,3.8z"/>
	</g>
	<g>
		<path class="st3" d="M70.1,172.4c-1.8,0-3.3-1.5-3.3-3.3v-135c0-1.8,1.5-3.3,3.3-3.3h19.3c1.8,0,3.3,1.5,3.3,3.3v135
			c0,1.8-1.5,3.3-3.3,3.3H70.1z"/>
		<path class="st1" d="M89.5,31.4c1.5,0,2.8,1.2,2.8,2.8v135c0,1.5-1.2,2.8-2.8,2.8H70.1c-1.5,0-2.8-1.2-2.8-2.8v-135
			c0-1.5,1.2-2.8,2.8-2.8L89.5,31.4 M89.5,30.3H70.1c-2.1,0-3.9,1.7-3.9,3.9v135c0,2.1,1.7,3.9,3.9,3.9h19.3c2.1,0,3.9-1.7,3.9-3.9
			v-135C93.4,32,91.6,30.3,89.5,30.3L89.5,30.3z"/>
	</g>
	<g>
		<path class="st4" d="M97.8,172.4c-2.1,0-3.8-1.7-3.8-3.8V25.4c0-2.1,1.7-3.8,3.8-3.8h23.7c2.1,0,3.8,1.7,3.8,3.8v143.2
			c0,2.1-1.7,3.8-3.8,3.8L97.8,172.4L97.8,172.4z"/>
		<path class="st1" d="M121.4,22.3c1.7,0,3.1,1.4,3.1,3.1v143.2c0,1.7-1.4,3.1-3.1,3.1H97.8c-1.7,0-3.1-1.4-3.1-3.1V25.4
			c0-1.7,1.4-3.1,3.1-3.1L121.4,22.3 M121.4,21H97.8c-2.4,0-4.4,2-4.4,4.4v143.2c0,2.4,2,4.4,4.4,4.4h23.7c2.4,0,4.4-2,4.4-4.4V25.4
			C125.8,23,123.8,21,121.4,21L121.4,21z"/>
	</g>
	<g>
		<path class="st3" d="M129.5,172.5c-1.7,0-3.1-1.4-3.1-3.1V65.9c0-1.7,1.4-3.1,3.1-3.1h23.8c1.7,0,3.1,1.4,3.1,3.1v103.4
			c0,1.7-1.4,3.1-3.1,3.1L129.5,172.5L129.5,172.5z"/>
		<path class="st1" d="M153.3,63.3c1.4,0,2.6,1.2,2.6,2.6v103.4c0,1.4-1.2,2.6-2.6,2.6h-23.8c-1.4,0-2.6-1.2-2.6-2.6V65.9
			c0-1.4,1.2-2.6,2.6-2.6H153.3 M153.3,62.3h-23.8c-2,0-3.7,1.6-3.7,3.7v103.4c0,2,1.6,3.7,3.7,3.7h23.8c2,0,3.7-1.6,3.7-3.7V65.9
			C156.9,63.9,155.3,62.3,153.3,62.3L153.3,62.3z"/>
	</g>
	<g>
		<path class="st5" d="M160.9,172.4c-1.9,0-3.4-1.5-3.4-3.4V16.9c0-1.9,1.5-3.4,3.4-3.4h17.8c1.9,0,3.4,1.5,3.4,3.4V169
			c0,1.9-1.5,3.4-3.4,3.4H160.9z"/>
		<path class="st1" d="M178.7,14c1.6,0,2.9,1.3,2.9,2.9V169c0,1.6-1.3,2.9-2.9,2.9h-17.8c-1.6,0-2.9-1.3-2.9-2.9V16.9
			c0-1.6,1.3-2.9,2.9-2.9H178.7 M178.7,12.9h-17.8c-2.2,0-4,1.8-4,4V169c0,2.2,1.8,4,4,4h17.8c2.2,0,4-1.8,4-4V16.9
			C182.7,14.7,180.9,12.9,178.7,12.9L178.7,12.9z"/>
	</g>
	<g>
		<path class="st4" d="M255.9,171.7c-2.2,0-4.1-1.8-4.1-4.1V23.2c0-2.2,1.8-4.1,4.1-4.1h28c2.2,0,4.1,1.8,4.1,4.1v144.4
			c0,2.2-1.8,4.1-4.1,4.1H255.9z"/>
		<path class="st1" d="M283.8,19.8c1.9,0,3.4,1.5,3.4,3.4v144.4c0,1.9-1.5,3.4-3.4,3.4h-28c-1.9,0-3.4-1.5-3.4-3.4V23.2
			c0-1.9,1.5-3.4,3.4-3.4H283.8 M283.8,18.4h-28c-2.6,0-4.7,2.1-4.7,4.7v144.4c0,2.6,2.1,4.7,4.7,4.7h28c2.6,0,4.7-2.1,4.7-4.7V23.2
			C288.6,20.6,286.4,18.4,283.8,18.4L283.8,18.4z"/>
	</g>
	<g>
		<path class="st2" d="M291.9,171.9c-1.6,0-2.9-1.3-2.9-2.9V45.5c0-1.6,1.3-2.9,2.9-2.9h15.8c1.6,0,2.9,1.3,2.9,2.9V169
			c0,1.6-1.3,2.9-2.9,2.9H291.9z"/>
		<path class="st1" d="M307.8,43.1c1.3,0,2.4,1.1,2.4,2.4V169c0,1.3-1.1,2.4-2.4,2.4H292c-1.3,0-2.4-1.1-2.4-2.4V45.5
			c0-1.3,1.1-2.4,2.4-2.4H307.8 M307.8,42.1H292c-1.9,0-3.4,1.5-3.4,3.4V169c0,1.9,1.5,3.4,3.4,3.4h15.8c1.9,0,3.4-1.5,3.4-3.4V45.5
			C311.2,43.6,309.6,42.1,307.8,42.1L307.8,42.1z"/>
	</g>
	<g>
		<path class="st2" d="M314.7,171.9c-1.6,0-3-1.3-3-3V37.4c0-1.6,1.3-3,3-3h15.6c1.6,0,3,1.3,3,3v131.5c0,1.6-1.3,3-3,3H314.7z"/>
		<path class="st1" d="M330.3,34.9c1.4,0,2.5,1.1,2.5,2.5v131.5c0,1.4-1.1,2.5-2.5,2.5h-15.6c-1.4,0-2.5-1.1-2.5-2.5V37.4
			c0-1.4,1.1-2.5,2.5-2.5H330.3 M330.3,33.9h-15.6c-1.9,0-3.5,1.6-3.5,3.5v131.5c0,1.9,1.6,3.5,3.5,3.5h15.6c1.9,0,3.5-1.6,3.5-3.5
			V37.4C333.8,35.5,332.2,33.9,330.3,33.9L330.3,33.9z"/>
	</g>
	<g>
		<path class="st0" d="M337.6,171.8c-1.8,0-3.3-1.5-3.3-3.3v-142c0-1.8,1.5-3.3,3.3-3.3h17.3c1.8,0,3.3,1.5,3.3,3.3v142
			c0,1.8-1.5,3.3-3.3,3.3H337.6z"/>
		<path class="st1" d="M354.9,23.8c1.5,0,2.7,1.2,2.7,2.7v142c0,1.5-1.2,2.7-2.7,2.7h-17.3c-1.5,0-2.7-1.2-2.7-2.7v-142
			c0-1.5,1.2-2.7,2.7-2.7H354.9 M354.9,22.7h-17.3c-2.1,0-3.8,1.7-3.8,3.8v142c0,2.1,1.7,3.8,3.8,3.8h17.3c2.1,0,3.8-1.7,3.8-3.8
			v-142C358.7,24.4,357,22.7,354.9,22.7L354.9,22.7z"/>
	</g>
	<g>
		<path class="st4" d="M362.4,171.8c-1.7,0-3.1-1.4-3.1-3.1V76.8c0-1.7,1.4-3.1,3.1-3.1h27.3c1.7,0,3.1,1.4,3.1,3.1v91.9
			c0,1.7-1.4,3.1-3.1,3.1L362.4,171.8L362.4,171.8z"/>
		<path class="st1" d="M389.7,74.1c1.4,0,2.6,1.2,2.6,2.6v91.9c0,1.4-1.2,2.6-2.6,2.6h-27.3c-1.4,0-2.6-1.2-2.6-2.6V76.8
			c0-1.4,1.2-2.6,2.6-2.6h27.3 M389.7,73.1h-27.3c-2,0-3.7,1.6-3.7,3.7v91.9c0,2,1.6,3.7,3.7,3.7h27.3c2,0,3.7-1.6,3.7-3.7V76.8
			C393.4,74.7,391.7,73.1,389.7,73.1L389.7,73.1z"/>
	</g>
	<g>
		<path class="st5" d="M396.2,172c-1.3,0-2.4-1.1-2.4-2.4V57c0-1.3,1.1-2.4,2.4-2.4h11.3c1.3,0,2.4,1.1,2.4,2.4v112.6
			c0,1.3-1.1,2.4-2.4,2.4H396.2z"/>
		<path class="st1" d="M407.5,55c1.1,0,2,0.9,2,2v112.6c0,1.1-0.9,2-2,2h-11.3c-1.1,0-2-0.9-2-2V57c0-1.1,0.9-2,2-2H407.5
			 M407.5,54.2h-11.3c-1.5,0-2.8,1.3-2.8,2.8v112.6c0,1.5,1.3,2.8,2.8,2.8h11.3c1.5,0,2.8-1.3,2.8-2.8V57
			C410.3,55.5,409,54.2,407.5,54.2L407.5,54.2z"/>
	</g>
	<g>
		<path class="st3" d="M413.8,171.8c-1.7,0-3-1.4-3-3v-128c0-1.7,1.4-3,3-3h16.6c1.7,0,3,1.4,3,3v128c0,1.7-1.4,3-3,3H413.8z"/>
		<path class="st1" d="M430.4,38.3c1.4,0,2.5,1.1,2.5,2.5v128c0,1.4-1.1,2.5-2.5,2.5h-16.6c-1.4,0-2.5-1.1-2.5-2.5v-128
			c0-1.4,1.1-2.5,2.5-2.5L430.4,38.3 M430.4,37.3h-16.6c-1.9,0-3.5,1.6-3.5,3.5v128c0,1.9,1.6,3.5,3.5,3.5h16.6
			c1.9,0,3.5-1.6,3.5-3.5v-128C433.9,38.9,432.3,37.3,430.4,37.3L430.4,37.3z"/>
	</g>
	<g>
		<path class="st2" d="M437.1,171.9c-1.5,0-2.7-1.2-2.7-2.7V65.5c0-1.5,1.2-2.7,2.7-2.7h17.3c1.5,0,2.7,1.2,2.7,2.7v103.7
			c0,1.5-1.2,2.7-2.7,2.7H437.1z"/>
		<path class="st1" d="M454.4,63.2c1.3,0,2.3,1,2.3,2.3v103.7c0,1.3-1,2.3-2.3,2.3h-17.3c-1.3,0-2.3-1-2.3-2.3V65.5
			c0-1.3,1-2.3,2.3-2.3H454.4 M454.4,62.3h-17.3c-1.8,0-3.2,1.4-3.2,3.2v103.7c0,1.8,1.4,3.2,3.2,3.2h17.3c1.8,0,3.2-1.4,3.2-3.2
			V65.5C457.6,63.7,456.2,62.3,454.4,62.3L454.4,62.3z"/>
	</g>
	<g>
		<path class="st5" d="M461.5,171.7c-2.1,0-3.7-1.7-3.7-3.7V52.4c0-2.1,1.7-3.7,3.7-3.7h30.4c2.1,0,3.7,1.7,3.7,3.7V168
			c0,2.1-1.7,3.7-3.7,3.7H461.5z"/>
		<path class="st1" d="M491.9,49.3c1.7,0,3.1,1.4,3.1,3.1V168c0,1.7-1.4,3.1-3.1,3.1h-30.4c-1.7,0-3.1-1.4-3.1-3.1V52.4
			c0-1.7,1.4-3.1,3.1-3.1H491.9 M491.9,48.1h-30.4c-2.4,0-4.4,2-4.4,4.4v115.6c0,2.4,2,4.4,4.4,4.4h30.4c2.4,0,4.4-2,4.4-4.4V52.4
			C496.2,50,494.3,48.1,491.9,48.1L491.9,48.1z"/>
	</g>
	<g>
		<path class="st2" d="M203.6,172.8c-0.4,0-0.7-0.1-1.1-0.2l-17.3-6.1c-1.7-0.6-2.5-2.4-1.9-4.1L227,38.8c0.5-1.3,1.7-2.1,3-2.1
			c0.4,0,0.7,0.1,1.1,0.2l17.3,6.1c1.7,0.6,2.5,2.4,1.9,4.1l-43.7,123.6C206.2,171.9,205,172.8,203.6,172.8z"/>
		<path class="st1" d="M230,37.2L230,37.2c0.3,0,0.6,0.1,0.9,0.2l17.3,6.1c1.4,0.5,2.1,2,1.6,3.4l-43.7,123.6
			c-0.4,1.1-1.4,1.8-2.5,1.8c-0.3,0-0.6-0.1-0.9-0.2l-17.3-6.1c-0.7-0.2-1.2-0.7-1.5-1.4c-0.3-0.6-0.3-1.4-0.1-2L227.5,39
			C227.9,37.9,228.9,37.2,230,37.2 M230,36.2c-1.5,0-3,1-3.5,2.5l-43.7,123.6c-0.7,1.9,0.3,4.1,2.3,4.8l17.3,6.1
			c0.4,0.1,0.8,0.2,1.2,0.2c1.5,0,3-1,3.5-2.5l43.7-123.6c0.7-1.9-0.3-4.1-2.3-4.8l-17.3-6.1C230.8,36.2,230.4,36.2,230,36.2
			L230,36.2z"/>
	</g>
</g>
<g id="Letters">
	<text transform="matrix(1 0 0 1 10.3588 90.655)" class="st6 st7 st8">P</text>
	<text transform="matrix(1 0 0 1 42.1503 109.0896)" class="st6 st9 st10">U</text>
	<text transform="matrix(1 0 0 1 70.705 122.199)" class="st6 st11 st12">R</text>
	<text transform="matrix(1 0 0 1 101.4994 96.1306)" class="st6 st13 st14">P</text>
	<text transform="matrix(1 0 0 1 132.4145 116.7058)" class="st6 st15 st16">L</text>
	<text transform="matrix(1 0 0 1 159.9911 107.529)" class="st6 st17 st18">E</text>
	<text transform="matrix(1 0 0 1 257.6772 93.4499)" class="st6 st19 st20">B</text>
	<text transform="matrix(1 0 0 1 293.6137 104.5593)" class="st6 st21 st22">O</text>
	<text transform="matrix(1 0 0 1 312.1723 96.8455)" class="st6 st23 st24">O</text>
	<text transform="matrix(1 0 0 1 337.4701 113.281)" class="st6 st11 st25">K</text>
	<text transform="matrix(1 0 0 1 367.0121 125.7888)" class="st6 st9 st26">S</text>
	<text transform="matrix(1 0 0 1 395.5668 113.1824)" class="st6 st27 st22">H</text>
	<text transform="matrix(1 0 0 1 438.4545 116.4187)" class="st6 st28 st29">L</text>
	<text transform="matrix(1 0 0 1 414.5131 126.1355)" class="st6 st30 st31">E</text>
	<text transform="matrix(1 0 0 1 466.0609 107.7078)" class="st6 st11 st32">F</text>
</g>
</svg>
